<?xml version="1.0" encoding="UTF-8" standalone="no"?>
<!-- Created with Inkscape (http://www.inkscape.org/) -->

<svg
   xmlns:dc="http://purl.org/dc/elements/1.1/"
   xmlns:cc="http://creativecommons.org/ns#"
   xmlns:rdf="http://www.w3.org/1999/02/22-rdf-syntax-ns#"
   xmlns:svg="http://www.w3.org/2000/svg"
   xmlns="http://www.w3.org/2000/svg"
   xmlns:sodipodi="http://sodipodi.sourceforge.net/DTD/sodipodi-0.dtd"
   xmlns:inkscape="http://www.inkscape.org/namespaces/inkscape"
   width="744.09448819"
   height="1052.3622047"
   id="svg2"
   version="1.1"
   inkscape:version="0.48.2 r9819"
   sodipodi:docname="New document 1">
  <defs
     id="defs4">
    <inkscape:perspective
       sodipodi:type="inkscape:persp3d"
       inkscape:vp_x="-847.14286 : 934.03824 : 1"
       inkscape:vp_y="0 : 1000 : 0"
       inkscape:vp_z="376.23734 : 1100.4668 : 1"
       inkscape:persp3d-origin="372.04724 : 350.78739 : 1"
       id="perspective2985" />
  </defs>
  <sodipodi:namedview
     id="base"
     pagecolor="#ffffff"
     bordercolor="#666666"
     borderopacity="1.0"
     inkscape:pageopacity="0.0"
     inkscape:pageshadow="2"
     inkscape:zoom="3.959798"
     inkscape:cx="221.89479"
     inkscape:cy="680.32471"
     inkscape:document-units="px"
     inkscape:current-layer="layer1"
     showgrid="false"
     inkscape:snap-global="true"
     inkscape:window-width="1586"
     inkscape:window-height="1198"
     inkscape:window-x="83"
     inkscape:window-y="0"
     inkscape:window-maximized="0">
    <sodipodi:guide
       position="170.84375,814.89343"
       orientation="113.65625,-81.71875"
       id="guide3928" />
    <sodipodi:guide
       position="89.125,701.23718"
       orientation="11.15625,0"
       id="guide3930" />
    <sodipodi:guide
       position="-847.19791,934.06807"
       orientation="0.24131625,0.97044653"
       id="guide3932" />
    <sodipodi:guide
       position="286.28125,638.70593"
       orientation="-150.125,29.25"
       id="guide3934" />
    <sodipodi:guide
       position="315.53125,788.83093"
       orientation="-9.125,0"
       id="guide3936" />
    <sodipodi:guide
       position="-847.1979,934.06807"
       orientation="-16.9375,-144.6875"
       id="guide3938" />
    <sodipodi:guide
       position="376.27897,1100.6173"
       orientation="0,0"
       id="guide3940" />
  </sodipodi:namedview>
  <metadata
     id="metadata7">
    <rdf:RDF>
      <cc:Work
         rdf:about="">
        <dc:format>image/svg+xml</dc:format>
        <dc:type
           rdf:resource="http://purl.org/dc/dcmitype/StillImage" />
        <dc:title></dc:title>
      </cc:Work>
    </rdf:RDF>
  </metadata>
  <g
     inkscape:label="Layer 1"
     inkscape:groupmode="layer"
     id="layer1">
    <path
       inkscape:connector-curvature="0"
       id="path3903"
       style="fill:#4d4d9f;fill-rule:evenodd;stroke:none"
       d="M 89.123047,351.11609 286.271,400.13474 315.52028,254.40603 170.85316,237.4737 z" />
    <path
       inkscape:connector-curvature="0"
       id="path3905"
       style="fill:#d7d7ff;fill-rule:evenodd;stroke:none"
       d="m 286.271,400.13474 0,13.52138 29.24928,-150.12469 0,-9.1254 z" />
    <path
       inkscape:connector-curvature="0"
       id="path3907"
       style="fill:#8686bf;fill-rule:evenodd;stroke:none"
       d="m 89.123047,351.11609 197.147953,49.01865 0,13.52138 -197.147953,-51.37059 z" />
    <path
       style="fill:#ececec;fill-opacity:1"
       d="m 187.47114,375.42026 c -53.72322,-13.36951 -97.736402,-24.35795 -97.807082,-24.41875 -0.07068,-0.0608 18.157272,-25.55272 40.506572,-56.64871 22.34929,-31.09599 40.6588,-56.57554 40.68778,-56.62123 0.0483,-0.0762 144.2087,16.7364 144.35579,16.83534 0.0355,0.0239 -6.48185,32.66556 -14.48294,72.53712 -11.08901,55.25951 -14.67035,72.50927 -15.06449,72.55908 -0.28438,0.0359 -44.47242,-10.87333 -98.19563,-24.24285 z"
       id="path3942"
       inkscape:connector-curvature="0" />
    <path
       style="fill:#999999;fill-opacity:1"
       d="m 187.20328,387.70563 -97.946427,-25.56104 0,-5.40886 c 0,-4.95123 0.05341,-5.40492 0.631279,-5.36235 0.347204,0.0256 0.829347,0.16892 1.071429,0.31853 0.242082,0.14962 0.589759,0.17957 0.772615,0.0666 0.182855,-0.11301 0.440183,-0.0312 0.571839,0.18184 0.131656,0.21302 0.459043,0.30302 0.727526,0.19999 0.268484,-0.10302 0.589912,-0.0227 0.714286,0.17857 0.124374,0.20125 0.445802,0.2816 0.714286,0.17858 0.268483,-0.10303 0.585774,-0.0294 0.705091,0.16369 0.119317,0.19306 0.405714,0.32141 0.636438,0.28522 0.230723,-0.0362 0.660569,0.0346 0.955211,0.15725 1.380218,0.57467 12.221607,3.09737 12.519597,2.91321 0.18565,-0.11474 0.33755,-0.0197 0.33755,0.21126 0,0.24404 0.29912,0.34165 0.71428,0.23308 0.39286,-0.10273 0.71429,-0.0224 0.71429,0.17857 0,0.20095 0.31372,0.28332 0.69716,0.18305 0.38344,-0.10027 0.74505,-0.0628 0.80357,0.0833 0.15574,0.38881 117.0383,29.36355 117.44272,29.1136 0.18824,-0.11634 0.34226,-0.0226 0.34226,0.20835 0,0.2406 0.29766,0.34203 0.69716,0.23756 0.38344,-0.10027 0.74505,-0.0622 0.80357,0.0847 0.0585,0.14683 12.28052,3.29511 27.15999,6.99616 l 27.05357,6.72919 0,6.53735 c 0,5.0141 -0.10402,6.5276 -0.44643,6.49551 -0.24554,-0.023 -44.52232,-11.54431 -98.39286,-25.60289 l 0,0 z"
       id="path3944"
       inkscape:connector-curvature="0" />
    <path
       style="fill:#999999;fill-opacity:1"
       d=""
       id="path3946"
       inkscape:connector-curvature="0" />
    <path
       style="fill:#999999;fill-opacity:1"
       d=""
       id="path3948"
       inkscape:connector-curvature="0" />
    <path
       style="fill:#4d4d4d;fill-opacity:1"
       d="m 286.42791,405.7056 -0.0282,-5.68047 9.69161,-48.2481 c 5.33038,-26.53645 11.82494,-58.85524 14.43235,-71.81953 l 4.74075,-23.57143 0.0319,3.67618 c 0.0299,3.44474 -0.86849,8.30162 -14.26972,77.14286 -7.8659,40.40667 -14.36215,73.62739 -14.43609,73.82382 -0.0739,0.19643 -0.14713,-2.19907 -0.16263,-5.32333 z"
       id="path3950"
       inkscape:connector-curvature="0" />
  </g>
</svg>
