<?xml version="1.0" standalone="yes"?>

<svg version="1.1" viewBox="0.0 0.0 960.0 720.0" fill="none" stroke="none" stroke-linecap="square" stroke-miterlimit="10" clip-path="url(#p.0)" xmlns="http://www.w3.org/2000/svg" xmlns:xlink="http://www.w3.org/1999/xlink"><clipPath id="p.0"><path d="M0 0L960.0 0L960.0 720.0L0 720.0L0 0Z" clip-rule="nonzero"></path></clipPath><path stroke="#000000" stroke-width="2.0" stroke-linejoin="round" stroke-linecap="butt" d="M452.89697 95.55323L434.2828 177.31702" fill-rule="nonzero"></path><path fill="#ffffff" d="M671.6667 33.190876L671.6667 33.190876C663.50415 33.190876 656.88715 59.658955 656.88715 92.30899C656.88715 124.959015 663.50415 151.4271 671.6667 151.4271L461.63516 151.4271C453.47266 151.4271 446.85565 124.959015 446.85565 92.30899C446.85565 59.658955 453.47266 33.190876 461.63516 33.190876Z" fill-rule="nonzero"></path><path fill="#ffffff" d="M671.6667 33.190876L671.6667 33.190876C679.82916 33.190876 686.44617 59.658955 686.44617 92.30899C686.44617 124.959015 679.82916 151.4271 671.6667 151.4271L671.6667 151.4271C663.50415 151.4271 656.88715 124.959015 656.88715 92.30899C656.88715 59.658955 663.50415 33.190876 671.6667 33.190876Z" fill-rule="nonzero"></path><path stroke="#000000" stroke-width="2.0" stroke-linejoin="round" stroke-linecap="butt" d="M671.6667 151.4271L671.6667 151.4271C663.50415 151.4271 656.88715 124.959015 656.88715 92.30899C656.88715 59.658955 663.50415 33.190876 671.6667 33.190876L671.6667 33.190876C679.82916 33.190876 686.44617 59.658955 686.44617 92.30899C686.44617 124.959015 679.82916 151.4271 671.6667 151.4271L461.63516 151.4271C453.47266 151.4271 446.85565 124.959015 446.85565 92.30899C446.85565 59.658955 453.47266 33.190876 461.63516 33.190876L671.6667 33.190876" fill-rule="nonzero"></path><path stroke="#000000" stroke-width="2.0" stroke-linejoin="round" stroke-linecap="butt" d="M671.4756 92.30358L694.9716 92.30358" fill-rule="nonzero"></path><path stroke="#000000" stroke-width="2.0" stroke-linejoin="round" stroke-linecap="butt" d="M694.19415 91.88922L671.5485 190.66087" fill-rule="nonzero"></path><path fill="#ffffff" d="M407.56317 138.03355L705.48444 138.03355L705.48444 193.90756L407.56317 193.90756Z" fill-rule="nonzero"></path><path stroke="#000000" stroke-width="2.0" stroke-linejoin="round" stroke-linecap="butt" d="M608.1104 692.8388L783.449 304.99628" fill-rule="nonzero"></path><path stroke="#000000" stroke-width="2.0" stroke-linejoin="round" stroke-linecap="butt" d="M620.2572 562.2231L699.94226 372.5223" fill-rule="nonzero"></path><path stroke="#000000" stroke-width="2.0" stroke-linejoin="round" stroke-linecap="butt" d="M699.9586 372.54504L712.809 199.06473" fill-rule="nonzero"></path><path stroke="#000000" stroke-width="2.0" stroke-linejoin="round" stroke-linecap="butt" d="M171.09973 562.6116L286.97375 373.63516" fill-rule="nonzero"></path><path stroke="#000000" stroke-width="2.0" stroke-linejoin="round" stroke-linecap="butt" d="M286.0457 372.54504L311.24255 197.96237" fill-rule="nonzero"></path><path stroke="#000000" stroke-width="2.0" stroke-linejoin="round" stroke-linecap="butt" d="M311.22928 200.57341L712.39465 200.57341" fill-rule="nonzero"></path><path stroke="#000000" stroke-width="2.0" stroke-linejoin="round" stroke-linecap="butt" d="M286.94318 373.41107L699.16364 373.41107" fill-rule="nonzero"></path><path stroke="#000000" stroke-width="2.0" stroke-linejoin="round" stroke-linecap="butt" d="M712.42 200.98607C721.6547 190.23514 756.04364 135.79146 767.82837 136.48047C779.61316 137.16948 780.5785 193.6802 783.12854 205.12015" fill-rule="nonzero"></path><path stroke="#000000" stroke-width="2.0" stroke-linejoin="round" stroke-linecap="butt" d="M783.4944 203.87842L783.4944 306.14615" fill-rule="nonzero"></path><path stroke="#000000" stroke-width="2.0" stroke-linejoin="round" stroke-linecap="butt" d="M311.22745 200.98607C320.46216 190.23514 354.8511 135.79146 366.63586 136.48047C378.42062 137.16948 379.38596 193.6802 381.936 205.12015" fill-rule="nonzero"></path><path stroke="#000000" stroke-width="2.0" stroke-linejoin="round" stroke-linecap="butt" d="M305.40387 419.75156L625.1834 419.75156" fill-rule="nonzero"></path><path stroke="#000000" stroke-width="2.0" stroke-linejoin="round" stroke-linecap="butt" d="M226.22794 554.94617L305.40903 419.76508" fill-rule="nonzero"></path><path stroke="#000000" stroke-width="2.0" stroke-linejoin="round" stroke-linecap="butt" d="M566.23334 555.7567L625.1625 419.7252" fill-rule="nonzero"></path><path stroke="#000000" stroke-width="2.0" stroke-linejoin="round" stroke-linecap="butt" d="M226.22794 554.94617L565.40906 555.7336" fill-rule="nonzero"></path><path stroke="#000000" stroke-width="2.0" stroke-linejoin="round" stroke-linecap="butt" d="M247.17052 520.0275L580.8083 520.0275" fill-rule="nonzero"></path><path stroke="#000000" stroke-width="2.0" stroke-linejoin="round" stroke-linecap="butt" d="M267.5281 484.30188L597.82733 484.30188" fill-rule="nonzero"></path><path stroke="#000000" stroke-width="2.0" stroke-linejoin="round" stroke-linecap="butt" d="M288.47043 450.4069L611.55707 450.4069" fill-rule="nonzero"></path><path stroke="#000000" stroke-width="2.0" stroke-linejoin="round" stroke-linecap="butt" d="M287.6486 555.3348L366.82968 420.15366" fill-rule="nonzero"></path><path stroke="#000000" stroke-width="2.0" stroke-linejoin="round" stroke-linecap="butt" d="M359.04453 554.94617L425.75317 420.143" fill-rule="nonzero"></path><path stroke="#000000" stroke-width="2.0" stroke-linejoin="round" stroke-linecap="butt" d="M433.52335 554.94617L498.15326 420.143" fill-rule="nonzero"></path><path stroke="#000000" stroke-width="2.0" stroke-linejoin="round" stroke-linecap="butt" d="M502.33347 554.1356L561.987 419.74194" fill-rule="nonzero"></path><path stroke="#000000" stroke-width="2.0" stroke-linejoin="round" stroke-linecap="butt" d="M450.817 136.50133L367.10046 136.50133" fill-rule="nonzero"></path><path stroke="#000000" stroke-width="2.0" stroke-linejoin="round" stroke-linecap="butt" d="M769.5626 136.43471L644.7123 136.43471" fill-rule="nonzero"></path><path fill="#efefef" stroke="#000000" stroke-width="2.0" stroke-linejoin="round" stroke-linecap="butt" d="M341.80737 343.15765L355.28653 232.64554L657.8687 232.64554L644.3895 343.15765Z" fill-rule="nonzero"></path><path stroke="#000000" stroke-width="2.0" stroke-linejoin="round" stroke-linecap="butt" d="M356.33966 234.10162L656.4015 234.10162" fill-rule="nonzero"></path><path stroke="#000000" stroke-width="2.0" stroke-linejoin="round" stroke-linecap="butt" d="M356.3381 235.55605L343.9851 341.71106" fill-rule="nonzero"></path><path fill="#000000" d="M439.1847 173.24481L443.0272 157.87473L651.31067 157.87473L647.46814 173.24481Z" fill-rule="nonzero"></path><path stroke="#000000" stroke-width="2.0" stroke-linejoin="round" stroke-linecap="butt" d="M469.3803 78.47272L661.1524 78.47272" fill-rule="nonzero"></path><path stroke="#000000" stroke-width="2.0" stroke-linejoin="round" stroke-linecap="butt" d="M449.71408 162.32024L449.71408 162.32024C450.1787 133.2839 456.88593 104.68751 469.3803 78.47272" fill-rule="nonzero"></path><path stroke="#000000" stroke-width="2.0" stroke-linejoin="round" stroke-linecap="butt" d="M641.4862 162.32024L641.4862 162.32024C641.9508 133.2839 648.658 104.68751 661.1524 78.47272" fill-rule="nonzero"></path><path fill="#ffffff" d="M366.52625 137.8566L386.0538 137.8566L386.0538 199.05345L366.52625 199.05345Z" fill-rule="nonzero"></path><path fill="#ffffff" d="M372.72546 202.08246L392.25302 202.08246L392.25302 210.39742L372.72546 210.39742Z" fill-rule="nonzero"></path><path fill="#ffffff" d="M451.32974 154.22182L639.95966 154.22182L639.95966 162.34781L451.32974 162.34781Z" fill-rule="nonzero"></path><path fill="#ffffff" d="M630.6949 79.98884L659.877 79.44249L646.6949 105.563644Z" fill-rule="nonzero"></path><path stroke="#000000" stroke-width="2.0" stroke-linejoin="round" stroke-linecap="butt" d="M607.4363 636.82416C607.7119 629.7008 606.9534 606.5175 609.09015 594.084C611.22687 581.65045 618.3955 567.53326 620.25653 562.2231" fill-rule="nonzero"></path><path stroke="#000000" stroke-width="2.0" stroke-linejoin="round" stroke-linecap="butt" d="M607.4356 636.82416L607.4356 693.1706" fill-rule="nonzero"></path><path stroke="#000000" stroke-width="2.0" stroke-linejoin="round" stroke-linecap="butt" d="M158.27063 636.82416C158.54628 629.7008 157.78778 606.5175 159.9245 594.084C162.06122 581.65045 169.22984 567.53326 171.09093 562.2231" fill-rule="nonzero"></path><path stroke="#000000" stroke-width="2.0" stroke-linejoin="round" stroke-linecap="butt" d="M158.26997 636.82416L158.26997 693.1706" fill-rule="nonzero"></path><path stroke="#000000" stroke-width="2.0" stroke-linejoin="round" stroke-linecap="butt" d="M159.05511 692.7743L607.81104 692.7743" fill-rule="nonzero"></path></svg>

